<svg xmlns="http://www.w3.org/2000/svg" viewBox="0 0 512 512" width="512" height="512"><path d="M452.129 156.432c0-37.474-24.772-69.643-59.573-79.967C392.086 34.22 357.573 0 315.217 0 291.831 0 270.376 10.424 256 27.546 241.623 10.424 220.167 0 196.779 0c-42.354 0-76.865 34.22-77.335 76.465-34.799 10.324-59.573 42.494-59.573 79.967 0 19.887 6.997 38.788 19.572 53.706-10.245 14.101-15.76 30.986-15.76 48.826 0 36.047 22.752 67.232 55.758 78.738l-.002.556c0 28.866 16.192 55.153 41.227 68.397V497c0 8.284 6.716 15 15 15h160.666c8.284 0 15-6.716 15-15v-90.345c25.035-13.245 41.228-39.532 41.228-68.397l-.002-.557c33.004-11.509 55.758-42.693 55.758-78.737 0-17.838-5.516-34.724-15.76-48.826 12.575-14.917 19.573-33.82 19.573-53.706zm-302.69 181.826c0-2.99.291-6.022.866-9.015.006-.029.007-.06.013-.089 1.801-9.249 6.29-17.676 12.987-24.372 5.857-5.857 5.858-15.355.001-21.214-5.859-5.856-15.356-5.857-21.214-.001a77.135 77.135 0 0 0-16.46 24.34c-19.082-8.318-31.949-27.25-31.949-48.943 0-14.761 5.902-28.506 16.621-38.704.062-.059.113-.125.174-.184 9.949-9.383 22.949-14.551 36.641-14.551h31.76c8.284 0 15-6.716 15-15s-6.716-15-15-15h-31.76c-16.524 0-32.398 4.836-45.936 13.791-7.282-9.307-11.312-20.814-11.312-32.885 0-27.172 20.327-49.988 47.281-53.073a15 15 0 0 0 13.057-17.563 47.794 47.794 0 0 1-.77-8.454c0-26.103 21.236-47.341 47.34-47.341A47.24 47.24 0 0 1 241 60.442v321.482h-62.511c-17.469-7.323-29.05-24.571-29.05-43.666zM321.332 482H190.666v-70.075h130.666V482zm11.787-276.475h31.76c13.69 0 26.686 5.164 36.633 14.54.064.063.118.132.183.193 10.719 10.2 16.622 23.946 16.622 38.705-.001 21.692-12.869 40.625-31.95 48.943a77.14 77.14 0 0 0-16.461-24.339c-5.858-5.857-15.355-5.857-21.213.002-5.857 5.858-5.856 15.357.002 21.213 6.691 6.69 11.177 15.105 12.979 24.344.008.044.01.088.019.132.575 2.979.867 6.008.867 9 0 19.096-11.58 36.342-29.053 43.667H271V60.442A47.236 47.236 0 0 1 315.217 30c26.105 0 47.344 21.237 47.344 47.341 0 2.775-.259 5.62-.77 8.454a15 15 0 0 0 13.056 17.563c26.955 3.086 47.282 25.902 47.282 53.073 0 12.07-4.029 23.577-11.311 32.883-13.537-8.954-29.412-13.789-45.939-13.789h-31.76c-8.284 0-15 6.716-15 15s6.716 15 15 15z" fill="#FFF"/></svg>