<svg xmlns="http://www.w3.org/2000/svg" viewBox="0 0 512.001 512.001" width="512" height="512"><path d="M196.003 91.001c-24.813 0-45 20.187-45 45s20.187 45 45 45 45-20.187 45-45-20.187-45-45-45zm0 60c-8.271 0-15-6.729-15-15s6.729-15 15-15 15 6.729 15 15-6.729 15-15 15zm120 60c-24.813 0-45 20.187-45 45s20.187 45 45 45 45-20.187 45-45-20.187-45-45-45zm0 60c-8.271 0-15-6.729-15-15s6.729-15 15-15 15 6.729 15 15-6.729 15-15 15zm8.32-177.481c-6.893-4.594-16.206-2.732-20.801 4.161l-120 180c-4.596 6.893-2.733 16.206 4.16 20.801 6.897 4.597 16.209 2.729 20.801-4.161l120-180c4.596-6.893 2.734-16.206-4.16-20.801z" fill="#FFF"/><path d="M497.003 301.001h-76v-286c0-8.284-6.716-15-15-15h-300c-8.284 0-15 6.716-15 15v286h-76c-14.339 0-20.512 18.354-9.008 26.994l241 181a15 15 0 0 0 18.016 0l241-181c11.465-8.612 5.379-26.994-9.008-26.994zm-241 177.24l-196.05-147.24h46.05c8.284 0 15-6.716 15-15v-286h270v286c0 8.284 6.716 15 15 15h46.05l-196.05 147.24z" fill="#FFF"/></svg>